<svg xmlns="http://www.w3.org/2000/svg" width="46.872" height="39.06" viewBox="0 0 46.872 39.06">
  <g id="Group_96" data-name="Group 96" transform="translate(-109.101 -836.702)">
    <path id="Path_128" data-name="Path 128" d="M110.976,860.139a1.875,1.875,0,0,1-1.265-3.259l21.561-19.686a1.873,1.873,0,0,1,2.495-.031l21.561,18.749a1.875,1.875,0,0,1-2.461,2.829l-20.3-17.652L112.24,859.648A1.868,1.868,0,0,1,110.976,860.139Z" fill="#909090"/>
    <path id="Path_129" data-name="Path 129" d="M126.912,875.762H116.131a1.875,1.875,0,0,1-1.874-1.875V855.138a1.874,1.874,0,0,1,3.749,0v16.874h7.031V859.826a1.875,1.875,0,0,1,1.875-1.875h7.031a1.875,1.875,0,1,1,0,3.749h-5.156v12.187A1.876,1.876,0,0,1,126.912,875.762Z" fill="#909090"/>
    <path id="Path_130" data-name="Path 130" d="M149.879,875.762H139.1a1.875,1.875,0,0,1-1.875-1.875V861.7h-5.156a1.875,1.875,0,1,1,0-3.749H139.1a1.874,1.874,0,0,1,1.874,1.875v12.186H148V855.138a1.875,1.875,0,0,1,3.75,0v18.749A1.876,1.876,0,0,1,149.879,875.762Z" fill="#909090"/>
  </g>
</svg>
