<svg xmlns="http://www.w3.org/2000/svg" width="39.509" height="39.509" viewBox="0 0 39.509 39.509">
  <g id="组_5" data-name="组 5" transform="translate(-582.099 -580.76)">
    <circle id="椭圆_3" data-name="椭圆 3" cx="19.755" cy="19.755" r="19.755" transform="translate(582.099 580.76)" fill="#b7004d"/>
    <g id="组_4" data-name="组 4">
      <circle id="椭圆_4" data-name="椭圆 4" cx="0.514" cy="0.514" r="0.514" transform="translate(597.691 597.639)" fill="#fff"/>
      <path id="路径_5" data-name="路径 5" d="M609.606,595.281a2.548,2.548,0,0,0-3.9-3.277,9.365,9.365,0,0,0-8.184.231,2.55,2.55,0,1,0-3.678,3.443,9.368,9.368,0,1,0,15.76-.4Zm-9.334,5.862a1.438,1.438,0,0,1,.356-.169,3.537,3.537,0,0,1,1.368-.148,3.133,3.133,0,0,1,.705.131c.159.05.493.136.556.311a.253.253,0,0,1-.051.227,3.026,3.026,0,0,1-.976.782,1.23,1.23,0,0,1-1.155.007C600.823,602.155,599.733,601.5,600.272,601.143Zm-6.586-7.473a1.726,1.726,0,0,1,3.122-1.019,9.415,9.415,0,0,0-2.5,2.343A1.723,1.723,0,0,1,593.686,593.67Zm4.005,8.038c-.365.795-1.194.751-1.845.308a2.778,2.778,0,0,1-1.06-1.764,3.177,3.177,0,0,1,1.1-3.106,3,3,0,0,1,2.8-.874c.635.21,1.341.712,1.256,1.457a2.139,2.139,0,0,1-.423.949c-.154.222-.323.433-.456.634A18.078,18.078,0,0,0,597.691,601.708Zm4.034,3.229a2.138,2.138,0,0,1-2.24-1.915l4.479.082A2.414,2.414,0,0,1,601.725,604.937Zm6.755-4.6a2.775,2.775,0,0,1-1.059,1.765c-.651.443-1.481.486-1.845-.308a18.131,18.131,0,0,0-1.368-2.4c-.133-.2-.3-.413-.457-.635a2.152,2.152,0,0,1-.423-.948c-.085-.745.622-1.247,1.256-1.458a3,3,0,0,1,2.8.875A3.172,3.172,0,0,1,608.48,600.341Zm.607-5.753a9.422,9.422,0,0,0-2.608-2.192,1.726,1.726,0,0,1,2.608,2.192Z" fill="#fff"/>
      <circle id="椭圆_5" data-name="椭圆 5" cx="0.514" cy="0.514" r="0.514" transform="translate(604.548 597.729)" fill="#fff"/>
    </g>
  </g>
</svg>
