<svg xmlns="http://www.w3.org/2000/svg" width="39.509" height="39.509" viewBox="0 0 39.509 39.509">
  <g id="组_1" data-name="组 1" transform="translate(-531.146 -580.356)">
    <circle id="椭圆_1" data-name="椭圆 1" cx="19.755" cy="19.755" r="19.755" transform="translate(531.146 580.356)" fill="#20779b"/>
    <path id="路径_1" data-name="路径 1" d="M550.9,588.249a8.718,8.718,0,0,0-7.154,13.7h0l.013.015a8.531,8.531,0,0,0,.692.868c1.571,2,5.246,6.859,5.513,8.879a.877.877,0,0,0,1.754,0,.689.689,0,0,0-.008-.078,19.5,19.5,0,0,1,2.781-5.355c.8-1.062,1.585-2.038,2.228-2.82a8.726,8.726,0,0,0,1.552-1.836h0a8.719,8.719,0,0,0-7.37-13.379Zm0,11.895a3.367,3.367,0,1,1,3.367-3.368A3.368,3.368,0,0,1,550.9,600.144Z" fill="#fff"/>
  </g>
</svg>
