<svg xmlns="http://www.w3.org/2000/svg" width="39.509" height="39.509" viewBox="0 0 39.509 39.509">
  <g id="组_8" data-name="组 8" transform="translate(-679.703 -579.586)">
    <circle id="椭圆_7" data-name="椭圆 7" cx="19.755" cy="19.755" r="19.755" transform="translate(679.703 579.586)" fill="#1179c1"/>
    <g id="组_7" data-name="组 7">
      <path id="路径_14" data-name="路径 14" d="M713.52,602.5a1.786,1.786,0,0,1-1.425.252c-.124-.008-.273-.229-.347-.383-.623-1.306-1.232-2.62-1.846-3.931a.86.86,0,0,0-.291-.372c-.008.146-.021.292-.022.438,0,1.215-.009,2.43,0,3.645,0,.368-.121.519-.5.554-1.167.106-1.165.122-1.165-1.048q0-3.481,0-6.962c0-.569.073-.661.638-.668,1.5-.02,1.138-.222,1.726,1.081.5,1.1.97,2.219,1.544,3.327.011-.141.03-.283.03-.424,0-1.043,0-2.087,0-3.13,0-.711.018-.727.717-.789.331-.03.686-.186.938.184Z" fill="#fff"/>
      <path id="路径_15" data-name="路径 15" d="M689.662,598.44c.007-.148.021-.3.021-.444,0-1.106.011-2.211,0-3.317-.005-.385.125-.551.529-.589,1.149-.107,1.055-.105,1.055,1q0,3.48,0,6.961c0,.586-.076.664-.661.71-.857.068-.862.07-1.229-.707-.571-1.211-1.134-2.425-1.7-3.637-.061-.13-.125-.259-.188-.389l-.128.029v.487c0,1.183-.01,2.367.005,3.55.005.4-.108.579-.546.613-1.134.087-1.133.109-1.133-1.044q0-3.458,0-6.914c0-.61.087-.7.692-.73,1.195-.064,1.2-.066,1.678,1.021.5,1.136.993,2.276,1.488,3.414Z" fill="#fff"/>
      <path id="路径_16" data-name="路径 16" d="M697.146,598.4c0-1.277.011-2.554-.005-3.831-.005-.421.148-.593.575-.57.668.038,1.343-.011,2,.073a2.745,2.745,0,0,1,2.4,2.073,7.045,7.045,0,0,1-.118,4.714,2.778,2.778,0,0,1-2.76,1.917c-.451,0-.9.013-1.354,0-.735-.016-.736-.022-.737-.782Q697.145,600.194,697.146,598.4Zm1.7-.057c0,.855.011,1.71,0,2.565-.008.417.182.516.551.442a1.293,1.293,0,0,0,1.03-.908,6.9,6.9,0,0,0,.074-3.905,1.424,1.424,0,0,0-1.129-1.123c-.336-.072-.534.007-.526.411C698.859,596.659,698.847,597.5,698.847,598.338Z" fill="#fff"/>
      <path id="路径_17" data-name="路径 17" d="M699.565,609.635a8.054,8.054,0,0,1-6.971-4.059,1.541,1.541,0,0,1-.242-.5.5.5,0,0,1,.132-.426.465.465,0,0,1,.423.115c.275.295.489.646.759.945a7.935,7.935,0,0,0,12.437-.756c.054-.076.09-.192.162-.223a.7.7,0,0,1,.443-.081c.08.03.137.261.117.387a1.415,1.415,0,0,1-.218.46A8.079,8.079,0,0,1,699.565,609.635Z" fill="#fff"/>
      <path id="路径_18" data-name="路径 18" d="M695.115,597.164c0,.855-.012,1.71.005,2.564a.5.5,0,0,1-.5.585c-1.267.2-1.359.128-1.359-1.143,0-1.476.01-2.952-.006-4.428-.005-.447.14-.684.613-.649a1.633,1.633,0,0,0,.279-.015c.968-.1.968-.1.968.9Z" fill="#fff"/>
      <path id="路径_19" data-name="路径 19" d="M704.068,597.22q0-1.215,0-2.429c0-.634.03-.662.642-.7.093-.005.186-.01.279-.02.911-.107.935-.087.935.81,0,1.573-.01,3.145.007,4.717.005.44-.13.637-.591.7-1.251.165-1.273.165-1.273-1.068Z" fill="#fff"/>
      <path id="路径_20" data-name="路径 20" d="M706.059,601.974a1.053,1.053,0,0,1-1.087,1.086,1.082,1.082,0,0,1-.006-2.164A1.045,1.045,0,0,1,706.059,601.974Z" fill="#fff"/>
      <path id="路径_21" data-name="路径 21" d="M695.287,601.984a1.068,1.068,0,0,1-1.107,1.075,1.082,1.082,0,1,1,.063-2.162A1.066,1.066,0,0,1,695.287,601.984Z" fill="#fff"/>
    </g>
  </g>
</svg>
