<svg xmlns="http://www.w3.org/2000/svg" width="39.509" height="39.509" viewBox="0 0 39.509 39.509">
  <g id="组_3" data-name="组 3" transform="translate(-480.193 -580.356)">
    <circle id="椭圆_2" data-name="椭圆 2" cx="19.755" cy="19.755" r="19.755" transform="translate(480.193 580.356)" fill="#dc5e08"/>
    <g id="组_2" data-name="组 2">
      <path id="路径_2" data-name="路径 2" d="M497.269,603.179l.043.124h0Z" fill="#fff"/>
      <path id="路径_3" data-name="路径 3" d="M511.417,608.049c-.511-1.787-4.97-4.31-5.65-4.049s-3.286,2.588-4.24,2.084c-2.262-1.2-4.106-2.281-5.5-4.54-.4-.641-.78-1.291-1.138-1.953-.505-.936,1.768-3.526,2.02-4.2s-2.272-5.051-4.04-5.54-2.61,1.584-2.61,1.584c-1.526,1.566-.505,5.555.337,8.155a15.943,15.943,0,0,0,2.393,4.194,17.578,17.578,0,0,0,8.576,6.651c2.642.832,6.7,1.833,8.27.272C509.834,610.708,511.928,609.837,511.417,608.049Z" fill="#fff"/>
      <path id="路径_4" data-name="路径 4" d="M497.269,603.179Z" fill="#fff"/>
    </g>
  </g>
</svg>
