<svg xmlns="http://www.w3.org/2000/svg" width="39.509" height="39.509" viewBox="0 0 39.509 39.509">
  <g id="组_6" data-name="组 6" transform="translate(-633.053 -580.356)">
    <circle id="椭圆_6" data-name="椭圆 6" cx="19.755" cy="19.755" r="19.755" transform="translate(633.053 580.356)" fill="#2f2c2c"/>
    <path id="路径_6" data-name="路径 6" d="M640.791,608.714v-7.948a51.289,51.289,0,0,1,5.563-.044v1.16a3.765,3.765,0,0,1-.442.048c-1.065,0-2.13,0-3.2,0-.153,0-.3.026-.487.043v2.092c.692,0,1.356.008,2.02.01s1.333,0,2.027,0v1.19a3.106,3.106,0,0,1-.334.034c-1.129-.007-2.259-.019-3.389-.023a1.585,1.585,0,0,0-.332.07v2.086c1.384.081,2.745-.007,4.135.053v1.224Z" fill="#5da01f"/>
    <path id="路径_7" data-name="路径 7" d="M647.182,598.961h-1.167l-.038-.647c-.232.159-.422.312-.632.429a3.013,3.013,0,0,1-4.519-2.6c-.069-1.7-.014-3.412-.014-5.119a.435.435,0,0,1,.039-.1h1.162c.007.148.02.286.02.423,0,1.474,0,2.948,0,4.422a3.312,3.312,0,0,0,.077.73,1.889,1.889,0,0,0,1.894,1.524,1.932,1.932,0,0,0,1.9-1.53,3.315,3.315,0,0,0,.077-.73c.007-1.461,0-2.923,0-4.384v-.455h1.2Z" fill="#fff"/>
    <path id="路径_8" data-name="路径 8" d="M652.043,603.221l.1-.377h1.317V608.7h-1.323l-.13-.5a3.019,3.019,0,0,1-2.655.612,3.085,3.085,0,0,1-1.742-1.077,3.208,3.208,0,0,1-.132-3.75,3.15,3.15,0,0,1,1.292-1.062,2.68,2.68,0,0,1,1.65-.24A12.991,12.991,0,0,1,652.043,603.221Zm.069,2.576a1.871,1.871,0,0,0-1.868-1.922,1.909,1.909,0,0,0-1.935,1.865,1.9,1.9,0,1,0,3.8.057Z" fill="#5da01f"/>
    <path id="路径_9" data-name="路径 9" d="M649.276,598.294l-.033.654h-1.132v-8.017h1.14v2.875a3.051,3.051,0,0,1,2.927-.737,2.977,2.977,0,0,1,1.711,1.2,3.081,3.081,0,0,1-.288,3.892,2.994,2.994,0,0,1-2.1.954A3.044,3.044,0,0,1,649.276,598.294Zm1.979-4.286a2.037,2.037,0,1,0,2.026,2.027A2.031,2.031,0,0,0,651.255,594.008Z" fill="#fff"/>
    <path id="路径_10" data-name="路径 10" d="M659.152,606.949H660.5a3.817,3.817,0,0,0,.25.384,1.138,1.138,0,0,0,.945.408,8.192,8.192,0,0,0,1.2-.093.548.548,0,0,0,.458-.528c.017-.3-.215-.408-.444-.479-.3-.093-.61-.149-.914-.23-.558-.147-1.123-.273-1.668-.46a1.467,1.467,0,0,1-1.093-1.436,1.675,1.675,0,0,1,1.13-1.6,4.22,4.22,0,0,1,3.221.084,1.641,1.641,0,0,1,.991,1.587h-1.272a1.744,1.744,0,0,0-2.174-.7.571.571,0,0,0-.436.541c.007.277.2.39.429.443.613.144,1.237.242,1.84.415a4.891,4.891,0,0,1,1.257.528,1.458,1.458,0,0,1,.422,1.9,2.126,2.126,0,0,1-1.486,1.067,4.37,4.37,0,0,1-2.67-.169A2.087,2.087,0,0,1,659.152,606.949Z" fill="#5da01f"/>
    <path id="路径_11" data-name="路径 11" d="M659.73,597.223l.828.62a3.048,3.048,0,0,1-1.32,1.036,3.178,3.178,0,0,1-4.06-1.512,3.138,3.138,0,0,1,.668-3.576,3.047,3.047,0,0,1,3.39-.528,2.978,2.978,0,0,1,1.571,3.143h-4.724a1.888,1.888,0,0,0,1.153,1.5A2.048,2.048,0,0,0,659.73,597.223Zm-.093-1.761A1.8,1.8,0,0,0,657.7,594c-.759.065-1.563.842-1.52,1.459Z" fill="#fff"/>
    <path id="路径_12" data-name="路径 12" d="M655.375,604.051h-1.092v-1.218l1.134-.054v-1.671h1.355c.163.522-.018,1.085.122,1.676h1.63v1.265h-1.59a1.129,1.129,0,0,0-.083.264c-.008.815-.019,1.63-.01,2.445.007.591.146.716.728.727.25.005.5.008.749.021a.931.931,0,0,1,.212.069v1.116a17.96,17.96,0,0,1-2-.016,1.273,1.273,0,0,1-1.107-1.369c-.009-.908,0-1.815,0-2.722C655.421,604.431,655.4,604.278,655.375,604.051Z" fill="#5da01f"/>
    <path id="路径_13" data-name="路径 13" d="M662.671,598.982h-1.146V593.1c.135-.008.248-.019.36-.02.243,0,.486,0,.75,0l.051.568c.8-.6,1.049-.677,1.756-.563v1.033a2.505,2.505,0,0,1-.363.021,1.3,1.3,0,0,0-1.4,1.333c-.028.528-.01,1.059-.011,1.588C662.67,597.679,662.671,598.3,662.671,598.982Z" fill="#fff"/>
  </g>
</svg>
