<?xml version="1.0" encoding="UTF-8" standalone="no"?>
<svg
   xmlns:dc="http://purl.org/dc/elements/1.1/"
   xmlns:cc="http://creativecommons.org/ns#"
   xmlns:rdf="http://www.w3.org/1999/02/22-rdf-syntax-ns#"
   xmlns:svg="http://www.w3.org/2000/svg"
   xmlns="http://www.w3.org/2000/svg"
   xmlns:sodipodi="http://sodipodi.sourceforge.net/DTD/sodipodi-0.dtd"
   xmlns:inkscape="http://www.inkscape.org/namespaces/inkscape"
   version="1.1"
   id="svg10"
   xml:space="preserve"
   width="1440"
   height="1440"
   viewBox="0 0 1440 1440"
   sodipodi:docname="郡都集團SVG.svg"
   inkscape:version="1.0.1 (c497b03c, 2020-09-10)"><metadata
     id="metadata16"><rdf:RDF><cc:Work
         rdf:about=""><dc:format>image/svg+xml</dc:format><dc:type
           rdf:resource="http://purl.org/dc/dcmitype/StillImage" /><dc:title></dc:title></cc:Work></rdf:RDF></metadata><defs
     id="defs14"><clipPath
       clipPathUnits="userSpaceOnUse"
       id="clipPath28"><path
         d="M 0,1080 H 1080 V 0 H 0 Z"
         id="path26" /></clipPath><clipPath
       clipPathUnits="userSpaceOnUse"
       id="clipPath84"><path
         d="M 0,1080 H 1080 V 0 H 0 Z"
         id="path82" /></clipPath></defs><sodipodi:namedview
     pagecolor="#ffffff"
     bordercolor="#666666"
     borderopacity="1"
     objecttolerance="10"
     gridtolerance="10"
     guidetolerance="10"
     inkscape:pageopacity="0"
     inkscape:pageshadow="2"
     inkscape:window-width="1440"
     inkscape:window-height="900"
     id="namedview12"
     showgrid="false"
     inkscape:zoom="0.19973967"
     inkscape:cx="1588.3067"
     inkscape:cy="711.86248"
     inkscape:window-x="0"
     inkscape:window-y="0"
     inkscape:window-maximized="0"
     inkscape:current-layer="g18" /><g
     id="g18"
     inkscape:groupmode="layer"
     inkscape:label="郡都集團LO集團LOGO"
     transform="matrix(1.3333333,0,0,-1.3333333,0,1440)"><g
       id="g78"
       style="fill:#b3a573;fill-opacity:1"><g
         id="g80"
         clip-path="url(#clipPath84)"
         style="fill:#b3a573;fill-opacity:1"><g
           id="g86"
           transform="translate(404.8193,222.8447)"
           style="fill:#b3a573;fill-opacity:1"><path
             d="m 0,0 c -23.693,-20.494 -50.064,-35.291 -82.636,-42.487 2.115,7.771 3.805,14.574 5.415,21.249 9.301,39.003 1.551,76.212 -12.722,112.226 -8.091,20.111 -17.714,39.395 -27.357,58.792 -16.326,32.831 -34.744,64.699 -42.777,101.77 -23.553,-14.947 -46.34,-29.583 -68.988,-44.056 -0.845,0.653 -1.61,1.479 -2.315,2.225 2.818,5.998 5.416,12.136 8.013,18.407 19.123,44.198 37.564,88.948 46.059,136.778 2.475,14.574 3.803,29.168 5.353,43.965 3.222,31.413 12.804,61.236 25.244,90.083 0.987,2.286 1.692,4.55 2.9,7.65 -19.911,5.335 -37.865,13.397 -50.507,32.048 31.786,6.865 56.063,24.66 76.736,47.368 12.52,13.586 23.835,28.101 35.571,42.495 30.76,37.715 61.841,75.147 103.752,101.326 44.087,27.711 92.479,40.081 144.317,36.8 43.824,-2.909 78.065,-41.722 74.34,-82.516 C 221.757,682 203.116,680.62 184.618,677.753 112.67,666.067 52.682,631.886 3.805,578.045 c -30.879,-34.2 -53.809,-72.62 -61.9,-118.407 -14.333,-81.931 8.655,-151.592 72.026,-206.277 24.196,-20.613 51.332,-37.986 76.456,-57.573 28.203,-21.934 53.384,-46.834 69.267,-79.406 18.501,-38.358 23.976,-77.815 6.966,-118.236 -6.743,-16.084 -18.219,-28.675 -33.476,-37.191 -12.441,-6.944 -25.526,-13.194 -38.69,-19.053 -11.958,-5.084 -23.071,-3.564 -33.197,5.244 C 41.289,-35.291 20.896,-18.058 0,0"
             style="fill:#b3a573;fill-opacity:1;fill-rule:evenodd;stroke:none"
             id="path88" /></g><g
           id="g90"
           transform="translate(509.3364,90.1836)"
           style="fill:#b3a573;fill-opacity:1"><path
             d="m 0,0 c 11.577,12.077 22.869,24.076 34.264,35.802 18.418,19.133 39.374,36.485 54.613,58.027 37.021,52.459 46.159,141.105 -23.252,204.243 -30.253,27.639 -63.51,51.887 -94.894,78.538 -22.063,18.792 -44.851,37.414 -64.055,59.034 -33.619,38.036 -42.072,84.417 -36.294,133.807 5.133,44.195 19.546,84.106 52.317,115.77 6.262,5.768 13.166,10.75 20.473,16.609 0.988,-2.557 1.833,-3.816 1.833,-5.213 0.985,-50.469 20.814,-93.428 50.567,-133.144 C 38.046,506.887 95.501,471.497 160,445.71 196.273,430.924 232.93,416.801 265.986,395.223 323.799,357.77 342.38,303.517 333.362,237.53 326.759,188.532 297.933,152.811 263.469,120.672 210.082,70.698 147.075,38.259 77.583,17.705 53.709,10.799 29.472,5.788 5.275,0 3.666,-0.413 1.833,0 0,0"
             style="fill:#b3a573;fill-opacity:1;fill-rule:evenodd;stroke:none"
             id="path92" /></g><g
           id="g94"
           transform="translate(773.5703,649.1465)"
           style="fill:#b3a573;fill-opacity:1"><path
             d="m 0,0 c 32.289,5.687 64.558,12.37 98.438,2.698 -2.779,-26.674 -3.987,-53.034 -8.697,-78.781 -5.073,-26.843 -18.278,-36.607 -45.655,-36.447 -75.872,0.593 -144.94,21.853 -206.136,67.699 -53.95,40.131 -94.594,90.387 -118.207,153.355 -6.844,18.188 -11.113,37.07 -16.185,55.932 -0.563,2.306 0.766,6.573 2.677,7.851 33.881,22.718 67.661,45.616 107.174,57.683 32.07,9.765 64.7,13.539 97.332,3.233 12.603,-4.187 24.137,-11.214 36.296,-18.411 -43.622,1.359 -81.65,-8.202 -108.382,-45.455 40.683,11.505 81.949,12.865 123.359,8.809 41.711,-4.379 81.951,-14.494 122.03,-30.206 -8.998,-7.52 -21.519,-10.016 -24.619,-23.532 6.12,-1.651 11.818,-3.02 17.373,-4.793 22.223,-6.631 39.597,-20.049 53.245,-38.298 1.973,-2.576 3.785,-7.87 2.535,-9.874 -9.783,-15.932 -20.048,-31.454 -30.597,-46.894 -1.549,-2.364 -4.71,-3.543 -7.669,-5.506 -3.02,13.9 -3.02,13.548 -17.514,11.898 C 50.085,27.719 26.029,17.705 2.678,5.295 1.33,4.51 -0.08,3.875 -1.49,3.03 -0.926,2.123 -0.443,0.946 0,0"
             style="fill:#b3a573;fill-opacity:1;fill-rule:evenodd;stroke:none"
             id="path96" /></g><g
           id="g98"
           transform="translate(797.2041,510.2969)"
           style="fill:#b3a573;fill-opacity:1"><path
             d="m 0,0 c 16.525,2.497 31.786,3.895 46.42,7.277 13.85,2.95 26.572,9.784 32.351,23.33 4.085,9.695 5.052,20.777 7.165,30.488 26.371,-23.743 28.627,-167.486 0.363,-208.239 C 84.809,-81.257 61.397,-29.582 0,0"
             style="fill:#b3a573;fill-opacity:1;fill-rule:evenodd;stroke:none"
             id="path100" /></g></g></g></g></svg>
