<svg xmlns="http://www.w3.org/2000/svg" width="27.014" height="27" viewBox="0 0 27.014 27">
  <g id="组_1026" data-name="组 1026" transform="translate(-6282.043 -11.96)">
    <path id="路径_4467" data-name="路径 4467" d="M6294.617,14.4c2.152,0,4.459.084,6.856.249a5.068,5.068,0,0,1,3.726,1.633c1.648,1.939,1.415,5.065,1.4,5.226l-.013.106v7.382c0,.662-.2,2.538-.334,3.6a4.111,4.111,0,0,1-2.562,3.276,7.738,7.738,0,0,1-2.6.654h-10.084a10.008,10.008,0,0,1-3.646-.643l-.066-.044-.151-.073a4.464,4.464,0,0,1-2.4-3.029,7.484,7.484,0,0,1-.255-2.352l.012-.1V19.267a5.066,5.066,0,0,1,2.364-3.731,6.655,6.655,0,0,1,2.267-.905,51.745,51.745,0,0,1,5.482-.233Zm0-2.438a51.456,51.456,0,0,0-5.811.255s-5.951.789-6.74,6.884V30.141s-.573,5.593,4.015,7.815c0,0,1.291.861,4.876,1h10.182s6.6-.143,7.529-6.023c0,0,.358-2.868.358-3.943V21.752s.932-8.963-7.385-9.537c-2.772-.191-5.123-.255-7.024-.255Z" fill="#f8f4f3"/>
    <path id="路径_4468" data-name="路径 4468" d="M6295.475,20.963a4.589,4.589,0,1,1-4.589,4.589,4.593,4.593,0,0,1,4.589-4.589Zm0-2.438a7.027,7.027,0,1,0,7.026,7.027,7.027,7.027,0,0,0-7.026-7.027Z" fill="#f8f4f3"/>
    <path id="路径_4469" data-name="路径 4469" d="M6302.645,16.732a1.6,1.6,0,1,0,1.6,1.6,1.6,1.6,0,0,0-1.6-1.6Z" fill="#f8f4f3"/>
  </g>
</svg>
