<svg xmlns="http://www.w3.org/2000/svg" width="29.817" height="20.917" viewBox="0 0 29.817 20.917">
  <path id="路径_4470" data-name="路径 4470" d="M6356.188,20.633s0-3.213-2.036-4.073-6.924-.814-6.924-.814-10.951-.453-16.291.271c0,0-3.575.091-3.937,4.571s-.226,10.905.453,12.716,1.719,2.665,4.706,2.805c3.489.164,8.281.408,9.955.408,0,0,10,.135,11.811-.906a4.213,4.213,0,0,0,2.263-3.937A37.44,37.44,0,0,0,6356.188,20.633ZM6338.66,30.694V21.523l7.723,4.585Z" transform="translate(-6326.805 -15.606)" fill="#f8f4f3"/>
</svg>
